<?xml version="1.0" encoding="utf-8"?>
<!-- Generator: Adobe Illustrator 27.3.1, SVG Export Plug-In . SVG Version: 6.00 Build 0)  -->
<svg version="1.1" id="Layer_1" xmlns="http://www.w3.org/2000/svg" xmlns:xlink="http://www.w3.org/1999/xlink" x="0px" y="0px"
	 viewBox="0 0 726 296" style="enable-background:new 0 0 726 296;" xml:space="preserve">
<style type="text/css">
	.st0{fill:#FFFFFF;}
	.st1{fill:#089949;}
	.st2{fill:#E42527;}
	.st3{fill:#F9B21D;}
	.st4{fill:#226DB4;}
</style>
<g>
	<g>
		<path d="M369.3,221.1c4.7,13.1,16.3,19.9,30.3,19.9c10.6,0,21.7-5.6,21.7-17.6c0-12.7-12.6-15-26.5-17.5
			c-17.8-3.2-37.4-7-37.4-33.4c0-22.1,19.8-33.3,39.6-33.3c18.4,0,34.6,7.5,41.7,25.4l-16.3,7.4c-4.9-10.1-14-16.2-25.7-16.2
			c-9.3,0-18.7,3.9-18.7,15.1c0,12.4,11.6,14.6,25.6,17.1c18,3.2,38.8,6.8,38.8,33.7c0,23.3-21.7,35.6-42.9,35.6
			c-20.6,0-41.4-7.4-47.6-28.7L369.3,221.1z"/>
		<path d="M470.2,136.1c6.5,0,11.7,4.8,11.7,11.5c0,6.6-5,11.4-11.6,11.4c-6.5,0-12-4.9-12-11.5
			C458.2,140.8,463.7,136.1,470.2,136.1z M460,171.8h20.1v83.9H460V171.8z"/>
		<path d="M545.4,255.1c-4.3,1.3-8.8,2-13.8,2c-16,0-25.5-8.3-25.5-25v-45.7h-11.3v-14.8h11.3v-17.3l20.1-8.7v26.1h18.5v14.8h-18.5
			v43.9c0,6.6,2.8,10.7,10.2,10.7c2.8,0,6-0.6,9-1.6V255.1z"/>
		<path d="M635.7,237.4c-7,14.8-22.1,19.9-37.5,19.9c-26.5,0-43.2-17.7-43.2-43.9c0-24.6,17-43.6,42.3-43.6
			c27.2,0,40.4,15.9,40.4,48.3h-62.2c0,14.2,8.2,24.6,23.5,24.6c9.1,0,16.6-3.7,21-12.2L635.7,237.4z M617.6,204.9
			c-0.6-12.7-8.3-20.5-20.2-20.5c-12.6,0-20,8.9-21.7,20.5H617.6z"/>
		<path d="M663.1,230.6c3.1,8.2,11.7,12.2,20.8,12.2c6.5,0,14.6-2,14.6-10c0-8.4-9.1-10.4-19.5-12.6c-13.5-2.8-28.6-6.1-28.6-25
			c0-17.3,16.1-25.5,31.3-25.5c13.3,0,28.6,5,34.1,18.3l-14.9,6.4c-3.3-7.5-11.5-10.3-18.4-10.3c-6.7,0-13.1,2.7-13.1,9.5
			c0,7.7,8.2,9.3,18.4,11.3c13.7,2.7,30.1,5.8,30.1,25.4c0,19.8-16.6,26.8-34.1,26.8c-14.8,0-30.8-5-36-20.1L663.1,230.6z"/>
	</g>
	<g>
		<path d="M360.6,104.4l37-53.4h-33.2V40.5H415v5.2l-36.1,53.4h35v10.5h-53.3V104.4z"/>
		<path d="M446.7,58c15.4,0,27.2,10.8,27.2,26.3c0,15.9-12.4,26.4-27.7,26.4c-15.4,0-27.8-10.7-27.8-26.1
			C418.3,68.6,431.4,58,446.7,58z M460.8,84.3c0-9.3-4.7-17.1-14.7-17.1c-10.2,0-14.3,8.1-14.3,17.4c0,9,4.8,16.6,14.6,16.6
			C456.6,101.3,460.8,93.2,460.8,84.3z"/>
		<path d="M482.7,36.1h12.1v31c3.3-6.3,9.9-9.1,16.9-9.1c12.1,0,18.2,8.5,18.2,20v31.7h-12.2V79.2c0-7.3-3.8-11.3-10.8-11.3
			c-7.8,0-12.1,4.8-12.1,12v29.7h-12.1V36.1z"/>
		<path d="M566,58c15.4,0,27.2,10.8,27.2,26.3c0,15.9-12.4,26.4-27.7,26.4c-15.4,0-27.8-10.7-27.8-26.1C537.7,68.6,550.8,58,566,58z
			 M580.2,84.3c0-9.3-4.7-17.1-14.7-17.1c-10.2,0-14.3,8.1-14.3,17.4c0,9,4.8,16.6,14.6,16.6C575.9,101.3,580.2,93.2,580.2,84.3z"/>
	</g>
</g>
<g>
	<g>
		<path class="st1" d="M65.4,225H23c-9.4,0-17-7.6-17-17V37.1c0-9.4,7.6-17,17-17h205c9.4,0,17,7.6,17,17v42.4
			c0,4.7-3.8,8.5-8.5,8.5s-8.5-3.8-8.5-8.5V37.1H23V208h42.5c4.7,0,8.5,3.8,8.5,8.5C73.9,221.2,70.1,225,65.4,225z"/>
	</g>
	<g>
		<circle class="st2" cx="98" cy="115.9" r="7.1"/>
	</g>
	<g>
		<circle class="st3" cx="119.3" cy="115.9" r="7.1"/>
	</g>
	<g>
		<circle class="st1" cx="140.5" cy="115.9" r="7.1"/>
	</g>
	<g>
		<path class="st4" d="M281.8,275.9H168.6c-3.8,0-7.3-1.5-10-4.1l-18.9-18.8c-4.7-4.7-5.5-12.1-1.9-17.7l0.3-0.4
			c3.3-5.2,4.3-11.6,2.6-17.7l-0.1-0.3c-1.6-6-5.7-11.1-11.1-13.9l-0.4-0.2c-5.9-3-8.9-9.9-7.2-16.2L128,163
			c1.7-6.4,7.7-10.8,14.4-10.5l0.5,0c6.1,0.3,12.2-2.1,16.6-6.5l0.2-0.2c4.5-4.5,6.9-10.5,6.5-16.7l0-0.5
			c-0.3-6.6,4.1-12.7,10.5-14.4l23.5-6.3c6.4-1.7,13.2,1.3,16.3,7.2l0.2,0.4c2.8,5.5,7.9,9.5,14,11.1l0.3,0.1
			c6,1.6,12.5,0.6,17.7-2.7l4.3-2.7c3.9-2.5,9.2-1.4,11.7,2.5c2.5,3.9,1.4,9.2-2.5,11.7l-4.3,2.7c-9.2,5.9-20.6,7.7-31.3,4.8l-0.1,0
			c0,0,0,0,0,0l-0.1,0c-10.1-2.7-18.7-9.3-23.9-18.2l-19.1,5.2c0,10.3-4.1,20.3-11.5,27.7l-0.2,0.2c-7.3,7.4-17.3,11.5-27.6,11.5
			l-5.1,19.2c8.9,5.1,15.5,13.7,18.2,23.8l0.1,0.2c2.8,10.1,1.4,20.9-3.8,29.8l16.5,16.4H279V88h-205v170.9h50.8
			c4.7,0,8.5,3.8,8.5,8.5s-3.8,8.5-8.5,8.5H71.1c-7.8,0-14.2-6.4-14.2-14.2V85.2C57,77.3,63.3,71,71.1,71h210.7
			c7.8,0,14.2,6.4,14.2,14.2v176.6C296,269.5,289.6,275.9,281.8,275.9z"/>
	</g>
	<g>
		<path class="st4" d="M211.7,231.2c-2.8,0-5.7-0.4-8.6-1.1c-17.8-4.7-28.4-23-23.6-40.8c4.7-17.8,23-28.4,40.8-23.6
			s28.4,23,23.6,40.8l0,0C240,221.3,226.5,231.2,211.7,231.2z M211.8,181.5c-7.2,0-13.9,4.8-15.8,12.1c-2.3,8.7,2.9,17.7,11.6,20
			c8.7,2.3,17.7-2.9,20-11.6l0,0c2.3-8.7-2.9-17.7-11.6-20C214.6,181.7,213.1,181.5,211.8,181.5z M235.8,204.2L235.8,204.2
			L235.8,204.2z"/>
	</g>
</g>
</svg>
